<svg xmlns="http://www.w3.org/2000/svg" viewBox="0 334.9 595.3 162" xml:space="preserve" class="mdl-js" height="50"><path fill="#E30613" d="M52.9 342.4c-11 0-24.2 10.6-34.9 28.4-11.4 18.6-18 41.4-18 61.3 0 29.2 16.3 58.5 52.9 58.5s52.9-29.3 52.9-58.5c0-19.9-6.6-42.8-18-61.2-10.7-17.9-23.9-28.5-34.9-28.5zM338.6 386h37v96.5h39.7V386h37v-35.7H338.6V386zm198.5 0h58.2v-35.7h-58.2c-53.5 0-82 26.6-82 66.2s28.6 66.2 82 66.2h58.2v-35.8h-58.2c-24.8 0-40.9-8.9-40.9-30.4s16.1-30.5 40.9-30.5zm-279.2-35.6-21.2 79-21.2-79h-70.1v132.4h39.7V375L214 482.6h45.5l28.9-107.7v107.7h39.7V350.4h-70.2z"/></svg>