<?xml version="1.0" standalone="no"?><!DOCTYPE svg PUBLIC "-//W3C//DTD SVG 1.1//EN" "http://www.w3.org/Graphics/SVG/1.1/DTD/svg11.dtd"><svg t="1694423874237" class="icon" viewBox="0 0 1024 1024" version="1.1" xmlns="http://www.w3.org/2000/svg" p-id="4015" xmlns:xlink="http://www.w3.org/1999/xlink" width="200" height="200"><path d="M512 85.333333c-282.88 0-384 95.573333-384 362.666667 0 183.893333 48.213333 286.72 170.666667 332.8v136.533333a21.333333 21.333333 0 0 0 21.333333 21.333334h13.226667a21.76 21.76 0 0 0 14.08-5.546667l136.533333-122.453333H512c282.88 0 384-95.573333 384-362.666667S794.88 85.333333 512 85.333333z m-10.666667 279.893334a20.48 20.48 0 0 1 8.106667-16.64 19.626667 19.626667 0 0 1 17.92-4.266667 116.906667 116.906667 0 0 1 88.32 88.32 19.626667 19.626667 0 0 1-4.266667 17.92 20.48 20.48 0 0 1-16.64 8.106667h-21.76a21.333333 21.333333 0 0 1-20.48-15.36 53.76 53.76 0 0 0-35.84-35.84 21.333333 21.333333 0 0 1-15.36-20.48z m157.013334 256a90.026667 90.026667 0 0 1-42.666667 35.413333 49.066667 49.066667 0 0 1-38.826667 0 485.546667 485.546667 0 0 1-246.613333-219.306667 651.093333 651.093333 0 0 1-28.586667-66.56A91.306667 91.306667 0 0 1 298.666667 355.84a66.133333 66.133333 0 0 1 56.32-62.72h8.106666a33.28 33.28 0 0 1 20.906667 8.96 244.906667 244.906667 0 0 1 52.48 72.533333 24.746667 24.746667 0 0 1-6.4 31.146667l-6.4 5.546667a36.693333 36.693333 0 0 0-13.653333 54.613333A177.066667 177.066667 0 0 0 506.026667 554.666667a26.453333 26.453333 0 0 0 31.146666-6.826667l2.986667-3.84c17.066667-28.586667 42.666667-25.6 64.853333-9.386667l42.666667 32.853334c24.32 17.066667 24.32 32.426667 10.666667 55.04z m60.586666-170.666667a21.333333 21.333333 0 0 1-16.213333 7.253333H682.666667a21.76 21.76 0 0 1-21.333334-18.773333A159.573333 159.573333 0 0 0 520.106667 298.666667a21.76 21.76 0 0 1-18.773334-21.333334V256a21.333333 21.333333 0 0 1 7.253334-16.213333 20.053333 20.053333 0 0 1 16.213333-5.12 224.426667 224.426667 0 0 1 200.533333 200.533333 20.053333 20.053333 0 0 1-6.4 16.213333z" p-id="4016" fill="#7F4DA0"></path></svg>